<?xml version="1.0" encoding="utf-8"?>
<!-- Generator: Adobe Illustrator 19.0.0, SVG Export Plug-In . SVG Version: 6.00 Build 0)  -->
<svg version="1.1" id="Layer_1" xmlns="http://www.w3.org/2000/svg" xmlns:xlink="http://www.w3.org/1999/xlink" x="0px" y="0px"
	 viewBox="0 0 256 256" style="enable-background:new 0 0 256 256;" xml:space="preserve">
<style type="text/css">
	.st0{fill:#FF6C48;}
</style>
<g id="XMLID_1_">
	<path id="XMLID_2_" class="st0" d="M102.1,80.4l33.2,28.3l30.5-35.1c-1.7-1.7-3.1-3.3-4.2-4.6L102.1,80.4z"/>
	<path id="XMLID_4_" class="st0" d="M175,80.5c-1.6-0.9-3.5-2.1-5.5-3.6l-30.5,35l33.5,28.5L175,80.5z"/>
	<path id="XMLID_7_" class="st0" d="M0,0v256h43.8c6.4-14.5,20-25.9,37.1-31.3l10-61.8C64,139.5,47,105,47,66.6
		c0-10.3,1.9-20.9,1.9-20.9c0.9-5,4.9-6.4,8.7-3.1l39.7,33.8l61.1-11.7v-0.1l9.5-12.2c4.9-5.8,13.6-6.5,19.4-1.6
		c5.8,4.9,6.5,13.6,1.6,19.4l-9.1,11.6l-2.5,62.5l40.3,34.3c3.9,3.3,3.1,7.3-1.8,8.8c0,0-23.1,7.2-40.7,7.2
		c-21.5,0-41.7-5.3-59.4-14.6l7.3,44.6c17.4,5.2,31.3,16.8,37.8,31.5H256V0H0z"/>
</g>
</svg>
